<mxfile host="app.diagrams.net" modified="2023-12-06T22:12:24.026Z" agent="Mozilla/5.0 (Windows NT 10.0; Win64; x64) AppleWebKit/537.36 (KHTML, like Gecko) Chrome/119.0.0.0 Safari/537.36" etag="qgZdRlLX0FtFSj8oQRFT" version="22.1.5" type="device">
  <diagram id="FiXUJnzLlhFP-MB1lQGa" name="Page-1">
    <mxGraphModel dx="882" dy="578" grid="1" gridSize="10" guides="1" tooltips="1" connect="1" arrows="1" fold="1" page="1" pageScale="1" pageWidth="850" pageHeight="1100" math="0" shadow="0">
      <root>
        <mxCell id="0" />
        <mxCell id="1" parent="0" />
        <mxCell id="LlVFD9Zg9ffbdlz43nOF-1" value="Harmful probability" style="rounded=1;whiteSpace=wrap;html=1;" vertex="1" parent="1">
          <mxGeometry x="240" y="280" width="120" height="60" as="geometry" />
        </mxCell>
        <mxCell id="LlVFD9Zg9ffbdlz43nOF-6" style="edgeStyle=orthogonalEdgeStyle;rounded=0;orthogonalLoop=1;jettySize=auto;html=1;exitX=0.5;exitY=1;exitDx=0;exitDy=0;entryX=0.5;entryY=0;entryDx=0;entryDy=0;" edge="1" parent="1" source="LlVFD9Zg9ffbdlz43nOF-2" target="LlVFD9Zg9ffbdlz43nOF-1">
          <mxGeometry relative="1" as="geometry" />
        </mxCell>
        <mxCell id="LlVFD9Zg9ffbdlz43nOF-2" value="Model" style="rounded=1;whiteSpace=wrap;html=1;" vertex="1" parent="1">
          <mxGeometry x="240" y="160" width="120" height="60" as="geometry" />
        </mxCell>
        <mxCell id="LlVFD9Zg9ffbdlz43nOF-5" style="edgeStyle=orthogonalEdgeStyle;rounded=0;orthogonalLoop=1;jettySize=auto;html=1;exitX=0.5;exitY=1;exitDx=0;exitDy=0;entryX=0.5;entryY=0;entryDx=0;entryDy=0;" edge="1" parent="1" source="LlVFD9Zg9ffbdlz43nOF-3" target="LlVFD9Zg9ffbdlz43nOF-2">
          <mxGeometry relative="1" as="geometry" />
        </mxCell>
        <mxCell id="LlVFD9Zg9ffbdlz43nOF-3" value="Fused features" style="rounded=1;whiteSpace=wrap;html=1;" vertex="1" parent="1">
          <mxGeometry x="80" y="40" width="440" height="40" as="geometry" />
        </mxCell>
      </root>
    </mxGraphModel>
  </diagram>
</mxfile>
